<svg id="Layer_1" data-name="Layer 1" xmlns="http://www.w3.org/2000/svg" viewBox="0 0 1063.06 438.82"><defs><style>.cls-1{fill:#e00;}</style></defs><title>Logo-Red_Hat-Adv_Cluster_Management_For_Kube-B-Standard-RGB</title><path d="M251,146.29h12.79l29.74,72.8H281.66l-8.43-21.32H240.68l-8.53,21.32H220.81Zm18.72,42.43L257,156.79l-12.69,31.93Z"/><path d="M337.5,214.1a25,25,0,0,1-16.22,5.82c-15,0-26.73-12-26.73-27.35s11.75-27.25,26.94-27.25a27,27,0,0,1,15.91,5.2V146.29L347.8,144v75.09H337.5Zm-14.77-3.23a19.07,19.07,0,0,0,14.67-6.34v-24a19.33,19.33,0,0,0-14.67-6.24c-10.19,0-18,7.8-18,18.2S312.54,210.87,322.73,210.87Z"/><path d="M354.24,166.15h11.45l16.53,39.63,16.54-39.63h11.13L387,219.09h-9.88Z"/><path d="M413.63,203.91c0-10,8.11-16.12,21.42-16.12a37.41,37.41,0,0,1,14.46,2.91v-5.62c0-7.49-4.47-11.23-12.9-11.23-4.88,0-9.88,1.35-16.43,4.47l-3.85-7.8c7.91-3.74,14.77-5.41,21.74-5.41,13.73,0,21.63,6.76,21.63,18.93v35.05H449.51v-4.58A25.1,25.1,0,0,1,433.08,220C421.53,220,413.63,213.47,413.63,203.91Zm21.84,8.42a20.35,20.35,0,0,0,14-5v-9.15A27.44,27.44,0,0,0,435.89,195c-7.6,0-12.28,3.43-12.28,8.74C423.61,208.79,428.4,212.33,435.47,212.33Z"/><path d="M471.66,166.15h10.4v5.31A21.81,21.81,0,0,1,498,165.11c12.17,0,20.7,8.43,20.7,20.7v33.28h-10.4V187.58c0-8.32-5.1-13.42-13.11-13.42a14.94,14.94,0,0,0-13.1,6.87v38.06h-10.4Z"/><path d="M570.15,204.43l6.24,6.76A29.3,29.3,0,0,1,555.48,220a27.46,27.46,0,0,1,0-54.92A30.11,30.11,0,0,1,576.81,174L570.25,181a19.66,19.66,0,0,0-14.56-6.66c-9.67,0-17.16,8-17.16,18.2,0,10.4,7.59,18.3,17.37,18.3C561.2,210.87,565.88,208.79,570.15,204.43Z"/><path d="M608.11,220c-15.6,0-27.77-12-27.77-27.46,0-15.29,11.65-27.25,26.52-27.25,14.56,0,25.59,12.07,25.59,27.67v3H590.64a17.85,17.85,0,0,0,17.88,15.19,20.6,20.6,0,0,0,13.42-4.68l6.66,6.55A31.62,31.62,0,0,1,608.11,220ZM590.74,188.2h31.41c-1.56-8.11-7.8-14.14-15.5-14.14C598.64,174.06,592.3,179.78,590.74,188.2Z"/><path d="M683.09,214.1a25,25,0,0,1-16.22,5.82c-15,0-26.73-12-26.73-27.35s11.75-27.25,26.94-27.25a27,27,0,0,1,15.91,5.2V146.29l10.4-2.29v75.09h-10.3Zm-14.77-3.23A19.07,19.07,0,0,0,683,204.53v-24a19.33,19.33,0,0,0-14.67-6.24c-10.19,0-18,7.8-18,18.2S658.13,210.87,668.32,210.87Z"/><path d="M785.64,200.37l7.17,7.28a40,40,0,0,1-29.12,12.58c-21.53,0-38.17-16.53-38.17-37.54s16.64-37.55,38.17-37.55c11.44,0,22.47,4.79,29.33,12.59l-7.28,7.49a28.92,28.92,0,0,0-22-10c-15.39,0-27,11.86-27,27.46S748.4,210.15,764,210.15A28.27,28.27,0,0,0,785.64,200.37Z"/><path d="M812.67,219.09h-10.4v-72.8l10.4-2.29Z"/><path d="M835.14,197.56c0,8.32,5.09,13.52,13.1,13.52a14.85,14.85,0,0,0,13-7v-38h10.4v52.94h-10.4v-5.3a21.62,21.62,0,0,1-15.91,6.34c-12.17,0-20.6-8.53-20.6-20.8V166.15h10.41Z"/><path d="M884.53,205.36c5.52,4.37,11.34,6.66,17.27,6.66,7.49,0,12.69-3.23,12.69-7.91,0-3.74-2.71-5.92-8.53-6.76L896.39,196c-10.5-1.56-15.81-6.45-15.81-14.66,0-9.57,8.32-16,20.7-16a36.28,36.28,0,0,1,21.32,6.76L917.3,179c-5.83-3.85-11.13-5.52-16.75-5.52-6.34,0-10.61,2.92-10.61,7.18,0,3.85,2.5,5.72,8.74,6.66l9.57,1.35c10.5,1.56,16,6.55,16,14.77,0,9.46-9.56,16.64-22.15,16.64-9.15,0-17.37-2.71-23.19-7.8Z"/><path d="M938.09,174.89H926.86v-8.74h11.23V152.63l10.3-2.49v16H964v8.74h-15.6v28.7c0,5.41,2.18,7.39,7.8,7.39a20.35,20.35,0,0,0,7.59-1.25v8.74A34.61,34.61,0,0,1,953.9,220c-10.29,0-15.81-4.89-15.81-14Z"/><path d="M995.92,220c-15.6,0-27.77-12-27.77-27.46,0-15.29,11.65-27.25,26.52-27.25,14.56,0,25.59,12.07,25.59,27.67v3H978.45a17.85,17.85,0,0,0,17.89,15.19,20.59,20.59,0,0,0,13.41-4.68l6.66,6.55A31.62,31.62,0,0,1,995.92,220ZM978.55,188.2H1010c-1.56-8.11-7.8-14.14-15.5-14.14C986.46,174.06,980.11,179.78,978.55,188.2Z"/><path d="M1030.14,166.15h10.4v6.76a16.57,16.57,0,0,1,14.56-7.9,13.29,13.29,0,0,1,5.3.83v9.36a17.8,17.8,0,0,0-6.14-1.14c-6.13,0-11,3.33-13.72,9.67v35.36h-10.4Z"/><path d="M238.29,267.81v59.28h-10.2v-72.8h14.56l22.89,46.49,22.77-46.49h14.56v72.8H292.58V267.7l-27.15,54.19Z"/><path d="M312.65,311.91c0-10,8.11-16.12,21.42-16.12a37.41,37.41,0,0,1,14.46,2.91v-5.62c0-7.49-4.47-11.23-12.9-11.23-4.89,0-9.88,1.35-16.43,4.47l-3.85-7.8c7.9-3.74,14.77-5.41,21.74-5.41,13.73,0,21.63,6.76,21.63,18.93v35H348.53v-4.57A25.14,25.14,0,0,1,332.1,328C320.55,328,312.65,321.47,312.65,311.91Zm21.84,8.42a20.37,20.37,0,0,0,14-5v-9.15A27.45,27.45,0,0,0,334.9,303c-7.59,0-12.27,3.43-12.27,8.74C322.63,316.79,327.41,320.33,334.49,320.33Z"/><path d="M370.68,274.15h10.4v5.31A21.81,21.81,0,0,1,397,273.11c12.17,0,20.7,8.43,20.7,20.7v33.28h-10.4V295.58c0-8.32-5.1-13.42-13.11-13.42a14.94,14.94,0,0,0-13.1,6.87v38.06h-10.4Z"/><path d="M426.94,311.91c0-10,8.11-16.12,21.43-16.12a37.4,37.4,0,0,1,14.45,2.91v-5.62c0-7.49-4.47-11.23-12.89-11.23-4.89,0-9.88,1.35-16.44,4.47l-3.85-7.8c7.91-3.74,14.77-5.41,21.74-5.41,13.73,0,21.63,6.76,21.63,18.93v35H462.82v-4.57A25.12,25.12,0,0,1,446.39,328C434.84,328,426.94,321.47,426.94,311.91Zm21.84,8.42a20.33,20.33,0,0,0,14-5v-9.15A27.41,27.41,0,0,0,449.2,303c-7.6,0-12.28,3.43-12.28,8.74C436.92,316.79,441.71,320.33,448.78,320.33Z"/><path d="M482.58,300.36a26.7,26.7,0,0,1,26.83-27.14,26,26,0,0,1,15.71,5.3v-4.37h10.29v53.67c0,13.73-8.63,21.42-24.23,21.42a44.86,44.86,0,0,1-21.32-5.2l4.06-8.11c6,3.12,11.33,4.58,16.95,4.58,9.26,0,14.14-4.37,14.14-12.69v-5.93a24.88,24.88,0,0,1-15.8,5.62C494.33,327.51,482.58,315.55,482.58,300.36Zm27.87,18.1c6,0,11.13-2.19,14.56-6.14V288.4a19.06,19.06,0,0,0-14.56-6.13c-10,0-17.68,7.9-17.68,18.09S500.47,318.46,510.45,318.46Z"/><path d="M573.06,328c-15.6,0-27.77-12-27.77-27.46,0-15.29,11.65-27.25,26.52-27.25,14.56,0,25.59,12.07,25.59,27.67v3H555.59a17.86,17.86,0,0,0,17.89,15.19,20.57,20.57,0,0,0,13.41-4.68l6.66,6.55A31.6,31.6,0,0,1,573.06,328ZM555.69,296.2H587.1c-1.56-8.11-7.8-14.14-15.49-14.14C563.6,282.06,557.25,287.78,555.69,296.2Z"/><path d="M607.28,274.15h10.4v5a20.28,20.28,0,0,1,14.87-6c7.18,0,13,3.33,16.33,8.84a21.21,21.21,0,0,1,17.89-8.84c11.64,0,19.86,8.43,19.86,20.7v33.28h-10.4V295.58c0-8.32-4.68-13.42-12.17-13.42-5.2,0-9.36,2.39-12.37,7.07a22.24,22.24,0,0,1,.41,4.58v33.28H641.81V295.58c0-8.32-4.68-13.42-12.17-13.42a13.87,13.87,0,0,0-12,6.45v38.48h-10.4Z"/><path d="M724,328c-15.6,0-27.77-12-27.77-27.46,0-15.29,11.65-27.25,26.53-27.25,14.56,0,25.58,12.07,25.58,27.67v3H706.49a17.87,17.87,0,0,0,17.89,15.19,20.62,20.62,0,0,0,13.42-4.68l6.65,6.55A31.58,31.58,0,0,1,724,328ZM706.6,296.2H738c-1.56-8.11-7.8-14.14-15.49-14.14C714.5,282.06,708.15,287.78,706.6,296.2Z"/><path d="M758.18,274.15h10.4v5.31a21.81,21.81,0,0,1,15.91-6.35c12.17,0,20.7,8.43,20.7,20.7v33.28h-10.4V295.58c0-8.32-5.1-13.42-13.11-13.42a14.94,14.94,0,0,0-13.1,6.87v38.06h-10.4Z"/><path d="M821.93,282.89H810.7v-8.74h11.23V260.63l10.3-2.49v16h15.6v8.74h-15.6v28.7c0,5.41,2.18,7.39,7.8,7.39a20.35,20.35,0,0,0,7.59-1.25v8.74a34.66,34.66,0,0,1-9.88,1.56c-10.3,0-15.81-4.89-15.81-14Z"/><path d="M234.75,383v-9.87c0-10.2,5.72-15.81,16.12-15.81a20.16,20.16,0,0,1,7,.93v6.87a19.87,19.87,0,0,0-6.45-1c-6.13,0-9,2.91-9,9.25V383h15.5v6.56h-15.5v45.55h-7.59V389.54H222.48V383Z"/><path d="M287.69,381.94c14.77,0,26.52,11.86,26.52,27.05s-11.75,27.14-26.52,27.14S261.06,424.27,261.06,409,272.81,381.94,287.69,381.94ZM306.62,409c0-11.34-8.32-20.18-18.93-20.18s-19,8.84-19,20.18,8.33,20.28,19,20.28S306.62,420.32,306.62,409Z"/><path d="M324.92,383h7.69v7.39a16.26,16.26,0,0,1,14.56-8.53,14.21,14.21,0,0,1,4.89.73v7.07a17,17,0,0,0-5.41-.94c-6.44,0-11.33,3.75-14,10.72v35.67h-7.69Z"/><path d="M384.72,362.29h8v34.53l37.64-34.53h10.51L401.36,398l40.35,37.13H430.48l-37.75-34.94v34.94h-8Z"/><path d="M452.11,414.39c0,9.26,5.62,15,14.56,15A16.08,16.08,0,0,0,481,421.26V383h7.7v52.11H481v-6c-4,4.68-9.57,7.07-16.33,7.07-12,0-20.17-8.22-20.17-20.18V383h7.59Z"/><path d="M526.16,435.92a26.43,26.43,0,0,1-16.75-6v5.2h-7.59v-72.8l7.7-1.77v28a23.78,23.78,0,0,1,16.74-6.35c14.77,0,26.21,11.76,26.21,26.84S541,435.92,526.16,435.92Zm-16.64-39.73V422a20.6,20.6,0,0,0,16,7.17c11,0,19.35-8.63,19.35-20.07s-8.43-20.18-19.35-20.18A20.21,20.21,0,0,0,509.52,396.19Z"/><path d="M587.73,436a26.56,26.56,0,0,1-26.84-27c0-15,11.34-26.84,25.69-26.84,13.83,0,24.65,11.86,24.65,26.84v2.39H568.48c1.15,10.29,9.26,17.89,19.56,17.89,5.41,0,10.81-1.77,14.35-4.79l4.78,5.1A30.82,30.82,0,0,1,587.73,436Zm-19-30.79h34.84c-1.35-9.25-8.52-16.33-17.16-16.33C577.32,388.91,570.15,395.67,568.69,405.24Z"/><path d="M621.94,383h7.7v7.39a16.25,16.25,0,0,1,14.56-8.53,14.19,14.19,0,0,1,4.88.73v7.07a17,17,0,0,0-5.4-.94c-6.45,0-11.34,3.75-14,10.72v35.67h-7.7Z"/><path d="M657.92,383h7.7v6.14c4.06-4.78,9.67-7.18,16.43-7.18,11.86,0,20.07,8.22,20.07,20.18v33h-7.59V403.68c0-9.25-5.61-15-14.56-15a16.21,16.21,0,0,0-14.35,8v38.38h-7.7Z"/><path d="M739.46,436a26.56,26.56,0,0,1-26.83-27c0-15,11.33-26.84,25.68-26.84C752.15,382.15,763,394,763,409v2.39H720.22c1.14,10.29,9.26,17.89,19.55,17.89,5.41,0,10.82-1.77,14.35-4.79l4.79,5.1A30.84,30.84,0,0,1,739.46,436Zm-19-30.79h34.84c-1.35-9.25-8.53-16.33-17.16-16.33C729.06,388.91,721.88,395.67,720.43,405.24Z"/><path d="M778,389.54H766.81V383H778v-13.2l7.6-2V383h15.7v6.56h-15.7v31.93c0,5.61,2.28,7.8,8,7.8a18.6,18.6,0,0,0,7.6-1.36v6.77a29.78,29.78,0,0,1-9.16,1.35c-9,0-14-4.37-14-12.59Z"/><path d="M832.33,436a26.56,26.56,0,0,1-26.83-27c0-15,11.33-26.84,25.69-26.84,13.83,0,24.65,11.86,24.65,26.84v2.39H813.09c1.14,10.29,9.26,17.89,19.55,17.89,5.41,0,10.82-1.77,14.36-4.79l4.78,5.1A30.82,30.82,0,0,1,832.33,436Zm-19-30.79h34.84c-1.35-9.25-8.53-16.33-17.16-16.33C821.93,388.91,814.75,395.67,813.3,405.24Z"/><path d="M866.44,422.92a25,25,0,0,0,16.95,7c8.32,0,14.15-3.85,14.15-9.36,0-4.47-3-7-9.67-7.9l-9-1.25c-10.4-1.56-15.39-6.14-15.39-14,0-8.74,8.11-15.19,19.55-15.19A33.33,33.33,0,0,1,903.47,389l-4.06,5.2c-5.82-4-11.13-5.83-16.85-5.83-7.17,0-12.06,3.54-12.06,8.63,0,4.48,2.81,6.66,9.67,7.7l9.05,1.25c10.4,1.46,15.6,6.14,15.6,14.14,0,9.05-9.15,15.92-21.11,15.92-8.64,0-16.44-2.92-22-8.12Z"/><path class="cls-1" d="M128.42,84.55C140.92,84.55,159,82,159,67.09a14.09,14.09,0,0,0-.31-3.43L151.27,31.3C149.54,24.19,148,21,135.53,14.7c-9.7-5-30.82-13.15-37.08-13.15C92.63,1.55,90.91,9.1,84,9.1c-6.68,0-11.64-5.61-17.89-5.61-6,0-9.92,4.1-12.94,12.51,0,0-8.4,23.71-9.48,27.16a6.06,6.06,0,0,0-.22,1.94c0,9.21,36.29,39.45,84.94,39.45M161,73.12c1.72,8.19,1.72,9.06,1.72,10.13,0,14-15.73,21.78-36.43,21.78-46.78,0-87.74-27.38-87.74-45.49A18.49,18.49,0,0,1,40,52.21c-16.81.86-38.58,3.88-38.58,23.07,0,31.47,74.58,70.27,133.65,70.27,45.27,0,56.7-20.48,56.7-36.64,0-12.72-11-27.16-30.83-35.79"/><path d="M161,73.12c1.72,8.19,1.72,9.06,1.72,10.13,0,14-15.73,21.78-36.43,21.78-46.78,0-87.74-27.38-87.74-45.49A18.49,18.49,0,0,1,40,52.21l3.67-9.05a6.06,6.06,0,0,0-.22,1.94c0,9.21,36.29,39.45,84.94,39.45C140.92,84.55,159,82,159,67.09a14.09,14.09,0,0,0-.31-3.43Z"/><path d="M580.68,93.86c0,11.88,7.16,17.67,20.2,17.67a52,52,0,0,0,11.88-1.69V96.07a24.78,24.78,0,0,1-7.68,1.15c-5.36,0-7.36-1.68-7.36-6.73V69.35h15.57V55.16H597.72v-18l-17,3.68V55.16H569.43V69.35h11.25Zm-52.94.31c0-3.68,3.68-5.47,9.26-5.47A42.5,42.5,0,0,1,547.09,90v7.15a21.45,21.45,0,0,1-10.62,2.63c-5.47,0-8.73-2.11-8.73-5.58m5.2,17.57c6,0,10.83-1.27,15.35-4.32v3.37h16.83V75.14c0-13.57-9.15-21-24.4-21-8.52,0-16.93,2-26,6.1l6.1,12.52c6.53-2.74,12-4.42,16.83-4.42,7.05,0,10.62,2.74,10.62,8.31v2.73a49.42,49.42,0,0,0-12.62-1.57c-14.3,0-22.92,6-22.92,16.72,0,9.78,7.78,17.25,20.19,17.25m-92.44-.95h18.09V82h30.28v28.82H507V37.17H488.87V65.46H458.59V37.17H440.5ZM371.57,82.92c0-8,6.31-14.09,14.62-14.09A17.19,17.19,0,0,1,398,73.14V92.6A16.37,16.37,0,0,1,386.19,97c-8.21,0-14.62-6.1-14.62-14.09m26.6,27.87H415V33.49l-17,3.68V58.1a28.23,28.23,0,0,0-14.19-3.68c-16.2,0-28.92,12.51-28.92,28.5a28.25,28.25,0,0,0,28.39,28.61,25.11,25.11,0,0,0,14.93-4.84ZM321,68.09c5.37,0,9.89,3.47,11.68,8.84H309.41c1.69-5.58,5.89-8.84,11.57-8.84M292.27,83c0,16.2,13.25,28.82,30.29,28.82,9.36,0,16.2-2.52,23.24-8.41l-11.25-10c-2.63,2.73-6.52,4.2-11.15,4.2a14.38,14.38,0,0,1-13.67-8.83h39.65V84.6c0-17.67-11.89-30.39-28.08-30.39a28.58,28.58,0,0,0-29,28.81M262.93,52.63c6,0,9.36,3.79,9.36,8.31s-3.36,8.31-9.36,8.31H245.05V52.63Zm-36,58.16h18.09V84h13.78l13.88,26.82H292.9L276.71,81.34a22.26,22.26,0,0,0,13.88-20.72c0-13.25-10.41-23.45-26-23.45H227Z"/></svg>