<?xml version="1.0" standalone="no"?>
<!DOCTYPE svg PUBLIC "-//W3C//DTD SVG 20010904//EN"
 "http://www.w3.org/TR/2001/REC-SVG-20010904/DTD/svg10.dtd">
<svg version="1.0" xmlns="http://www.w3.org/2000/svg"
 viewBox="0 3 201.000000 130.000000"
 preserveAspectRatio="xMidYMid meet">

<g transform="translate(0.000000,134.000000) scale(0.100000,-0.100000)"
fill="#ffffff" stroke="none">
<path d="M1252 1308 c-22 -22 -15 -67 12 -80 31 -14 53 -5 68 27 9 21 8 28 -7
45 -20 22 -55 26 -73 8z"/>
<path d="M1204 1085 c-386 -55 -802 -236 -976 -424 -57 -61 -98 -132 -97 -167
0 -16 2 -16 10 4 8 22 10 22 31 8 12 -9 42 -16 65 -16 88 0 139 90 94 166 -12
20 -19 40 -14 43 98 73 263 162 388 210 l72 28 -67 -66 c-106 -104 -151 -208
-151 -350 0 -85 10 -137 44 -215 l21 -49 88 7 c179 14 414 67 589 135 120 46
230 101 236 118 11 28 -19 154 -53 222 -40 80 -134 176 -213 216 -29 14 -90
34 -135 44 l-81 18 115 18 c134 21 364 24 459 6 130 -25 210 -67 253 -136 l20
-30 -6 33 c-13 77 -80 128 -212 163 -104 28 -336 34 -480 14z m-331 -331 c13
-36 17 -39 58 -44 l44 -5 -33 -20 c-29 -17 -33 -24 -29 -50 3 -16 9 -39 13
-50 7 -17 2 -16 -30 8 l-37 29 -40 -26 c-21 -15 -39 -25 -39 -22 0 2 6 22 14
44 l15 40 -35 24 -34 23 43 5 c39 5 43 8 56 48 7 24 15 41 17 39 2 -2 10 -21
17 -43z"/>
<path d="M1975 801 c-3 -16 -29 -61 -56 -100 -278 -397 -1284 -670 -1714 -465
-73 34 -120 77 -150 136 -24 47 -26 49 -20 18 24 -117 118 -195 293 -242 61
-16 114 -21 249 -23 171 -3 173 -4 225 -33 76 -43 150 -62 244 -62 187 0 361
105 436 262 19 39 33 53 83 79 156 83 302 203 365 301 34 52 67 144 56 155 -2
2 -7 -9 -11 -26z"/>
<path d="M1733 283 c-31 -6 -79 -56 -86 -89 -14 -75 43 -144 120 -144 38 0 50
5 79 34 27 27 34 42 34 75 0 72 -31 113 -95 123 -17 3 -40 3 -52 1z"/>
</g>
</svg>
