<svg version="1.1" id="Layer_1" xmlns="http://www.w3.org/2000/svg" xmlns:xlink="http://www.w3.org/1999/xlink" x="0px" y="0px"
	 width="100%" viewBox="0 0 720 720" enable-background="new 0 0 720 720" xml:space="preserve">
<path fill="#DC3A27" opacity="1.000000" stroke="none" 
	d="
M1.000002,363.000000 
	C1.000000,362.555664 1.000000,362.111328 1.392771,361.589111 
	C2.177990,360.328918 2.861284,359.159973 2.916509,357.962097 
	C3.328991,349.015137 3.185970,340.020844 4.044708,331.121246 
	C5.356745,317.523895 6.556561,303.836823 9.203932,290.464996 
	C13.560017,268.462463 19.455645,246.897751 28.736578,226.239410 
	C37.535923,206.653046 45.459454,186.730774 58.299274,169.259583 
	C66.617889,157.940414 74.455452,146.264496 82.883858,135.029999 
	C94.993294,118.888939 109.672546,105.173538 124.449425,91.515114 
	C140.206635,76.950546 157.519516,64.354622 175.809998,53.541267 
	C194.063644,42.749691 213.397339,33.465847 233.046295,25.455847 
	C248.412445,19.191746 264.784058,14.927070 281.074097,11.519961 
	C299.552399,7.655177 318.359009,4.567602 337.168121,3.304126 
	C355.344574,2.083145 373.735809,3.081236 391.976135,4.108502 
	C405.763306,4.884973 419.650360,6.324875 433.156250,9.105072 
	C455.106873,13.623627 476.767365,19.239639 497.416016,28.590464 
	C517.119873,37.513435 537.203308,45.465591 554.829163,58.384861 
	C564.424561,65.418076 574.838135,71.389366 584.081299,78.834518 
	C594.895081,87.544777 604.836487,97.338196 615.062622,107.015808 
	C613.430908,109.297707 612.061829,111.394058 610.330261,113.128571 
	C571.642639,151.881027 532.902161,190.580658 494.235931,229.354385 
	C492.417480,231.177902 491.192841,233.593582 489.319977,235.702911 
	C449.270844,213.846039 409.593384,192.019745 369.458496,169.941833 
	C369.458496,227.368866 369.458496,283.731262 369.458496,340.923218 
	C377.985718,336.324707 385.960419,332.024170 393.886627,328.077606 
	C393.027649,329.653290 392.393646,331.050415 391.379974,332.070129 
	C377.938690,345.592072 364.456604,359.073639 350.937775,372.518036 
	C349.913666,373.536530 348.533813,374.197235 347.193237,374.568115 
	C347.067139,344.172546 347.067139,314.233154 347.067139,283.988678 
	C339.839203,283.988678 333.262299,283.988678 325.841919,283.988678 
	C325.841919,301.562103 325.841919,318.862885 325.841919,337.402832 
	C307.773499,326.974731 290.877167,317.223083 273.122223,306.975922 
	C273.122223,314.439758 273.322388,320.740570 273.041473,327.019897 
	C272.891113,330.380157 274.255676,332.090973 277.027588,333.657410 
	C292.240204,342.254395 307.385590,350.971985 322.462921,359.803772 
	C323.958588,360.679871 325.828918,362.594086 325.848236,364.048767 
	C326.011536,376.355988 325.784943,388.668396 325.318115,400.992249 
	C323.019958,402.126587 320.729065,402.895447 319.190918,404.422485 
	C297.515656,425.941895 275.929626,447.551331 254.376221,469.192993 
	C253.018524,470.556213 252.109695,472.366486 250.655090,473.890686 
	C235.466812,465.272156 220.673737,456.627441 205.717850,448.274231 
	C202.497757,446.475739 201.393295,444.438385 201.423691,440.824310 
	C201.587448,421.349579 201.500946,401.872772 201.500778,382.396667 
	C201.500763,380.615814 201.500763,378.834991 201.500763,376.990448 
	C194.233505,376.990448 187.561020,376.990448 180.660965,376.990448 
	C180.660965,403.445007 180.607590,429.406372 180.799179,455.365936 
	C180.810165,456.856964 182.500443,458.864929 183.948303,459.730133 
	C193.371201,465.360962 202.988235,470.665680 212.452225,476.229370 
	C219.885757,480.599396 227.190536,485.188446 234.231720,489.869080 
	C232.192535,491.623077 230.407806,493.121826 228.765488,494.763031 
	C190.158813,533.344421 151.579041,571.952820 112.937302,610.499146 
	C111.108055,612.323914 108.753967,613.622498 106.359238,615.011108 
	C95.485222,602.787048 84.031158,591.356079 74.534714,578.481201 
	C63.598690,563.654541 53.609695,547.986206 44.670078,531.873108 
	C36.783386,517.657776 30.254274,502.583313 24.307007,487.424744 
	C16.870640,468.470673 11.355680,448.819733 8.592402,428.582245 
	C6.343138,412.109222 4.711893,395.548218 3.034227,379.003113 
	C2.582588,374.549072 3.062258,370.006500 2.869800,365.515045 
	C2.832799,364.651581 1.652739,363.837097 1.000002,363.000000 
M249.893433,226.021896 
	C228.403976,238.430527 206.978897,250.953293 185.364594,263.140503 
	C181.561356,265.284943 180.533234,267.704468 180.561508,271.821442 
	C180.737778,297.485870 180.650467,323.152130 180.650513,348.817780 
	C180.650513,350.763519 180.650513,352.709229 180.650513,354.833252 
	C187.910294,354.833252 194.461548,354.833252 201.769318,354.833252 
	C201.769318,333.461365 201.769318,312.457153 201.769318,290.522919 
	C218.718964,300.088287 234.689453,309.101105 251.491074,318.582947 
	C251.491074,311.281189 251.331894,304.992218 251.558441,298.717163 
	C251.671158,295.595001 250.450058,293.856201 247.829742,292.388977 
	C238.384140,287.099884 229.034576,281.639191 219.654221,276.233795 
	C217.573334,275.034698 215.514771,273.796906 212.891281,272.249908 
	C215.000351,270.854645 216.314560,269.895294 217.710922,269.075897 
	C227.764313,263.176544 237.853668,257.338165 247.876022,251.386795 
	C249.216888,250.590576 251.247330,249.277725 251.257248,248.188660 
	C251.324600,240.777267 250.935944,233.361710 249.893433,226.021896 
M282.421906,206.949051 
	C280.729462,208.005478 278.941223,208.938232 277.372070,210.153793 
	C275.860779,211.324493 273.458862,212.724411 273.379395,214.132614 
	C272.973083,221.332397 273.191559,228.567459 273.191559,236.623215 
	C291.165833,226.384720 308.208496,216.676895 326.192383,206.432922 
	C326.192383,225.646576 326.192383,243.691422 326.192383,261.801208 
	C333.356659,261.801208 339.920227,261.801208 346.662750,261.801208 
	C346.662750,231.293396 346.662750,201.124268 346.662750,170.172409 
	C325.069244,182.527634 304.058258,194.549561 282.421906,206.949051 
z"/>
<path fill="#CB3528" opacity="1.000000" stroke="none" 
	d="
M347.319305,375.024261 
	C348.533813,374.197235 349.913666,373.536530 350.937775,372.518036 
	C364.456604,359.073639 377.938690,345.592072 391.379974,332.070129 
	C392.393646,331.050415 393.027649,329.653290 394.078613,327.807098 
	C436.473267,302.748840 478.627472,278.315094 521.097595,253.698227 
	C510.140228,247.430405 499.915924,241.581955 489.691650,235.733490 
	C491.192841,233.593582 492.417480,231.177902 494.235931,229.354385 
	C532.902161,190.580658 571.642639,151.881027 610.330261,113.128571 
	C612.061829,111.394058 613.430908,109.297707 615.397034,107.123978 
	C621.339233,112.759026 626.749023,118.741974 632.387451,124.501190 
	C647.395996,139.831390 659.540955,157.474625 670.339172,175.715881 
	C681.223206,194.101898 690.713989,213.557220 698.572937,233.430756 
	C709.705322,261.581848 716.477905,291.071625 719.122437,321.375671 
	C719.202942,322.298035 720.350098,323.127319 721.000000,324.000000 
	C721.000000,349.020905 721.000000,374.041779 720.584839,399.441772 
	C719.797607,400.683563 719.208923,401.516785 719.086792,402.413544 
	C717.687622,412.688293 717.046204,423.120514 714.871399,433.224182 
	C710.154297,455.138885 704.358887,476.680481 695.440247,497.481903 
	C685.834778,519.885376 675.173157,541.510742 661.551575,561.747437 
	C643.911072,587.954590 623.251343,611.338928 599.657654,632.382568 
	C583.650208,646.659973 566.582825,659.560364 548.281372,670.308350 
	C529.288269,681.462524 509.172241,691.103943 488.675934,699.201294 
	C461.135925,710.081299 432.243988,716.560181 402.602081,719.122314 
	C401.687439,719.201294 400.865265,720.349976 400.000000,721.000000 
	C374.979095,721.000000 349.958221,721.000000 324.546631,720.585815 
	C323.122894,719.795471 322.116791,719.216980 321.052551,719.075256 
	C312.906311,717.990173 304.652588,717.473511 296.612823,715.872986 
	C272.524536,711.077393 248.746460,705.406311 226.118011,695.218872 
	C206.685318,686.470215 186.932358,678.578613 169.515610,665.957092 
	C163.505188,661.601440 156.765701,658.235718 150.853775,653.763977 
	C140.863663,646.207642 131.087448,638.340698 121.575920,630.190430 
	C116.231476,625.610962 111.598045,620.201660 106.644310,615.166138 
	C108.753967,613.622498 111.108055,612.323914 112.937302,610.499146 
	C151.579041,571.952820 190.158813,533.344421 228.765488,494.763031 
	C230.407806,493.121826 232.192535,491.623077 234.568115,489.909271 
	C240.376129,492.596497 245.526947,495.432434 250.992050,498.441437 
	C250.992050,489.811462 250.992050,481.890137 250.992035,473.968811 
	C252.109695,472.366486 253.018524,470.556213 254.376221,469.192993 
	C275.929626,447.551331 297.515656,425.941895 319.190918,404.422485 
	C320.729065,402.895447 323.019958,402.126587 325.449921,401.447266 
	C325.967590,409.544922 326.098541,417.202179 325.973694,424.855286 
	C325.924622,427.865021 326.925079,429.068298 329.998474,428.913269 
	C333.816864,428.720673 337.679077,428.585907 341.473633,428.943298 
	C345.856689,429.356140 347.152832,427.891754 347.104828,423.422699 
	C346.931549,407.292511 347.210876,391.157471 347.319305,375.024261 
M446.151123,426.410980 
	C420.801300,411.865540 395.451477,397.320099 369.477203,382.416382 
	C369.477203,440.051117 369.477203,496.575043 369.477203,554.024658 
	C421.349854,526.612854 472.609772,499.524811 524.700623,471.997681 
	C498.194855,456.621033 472.484650,441.705933 446.151123,426.410980 
M531.794495,414.500092 
	C531.794495,368.450439 531.794495,322.400818 531.794495,275.161560 
	C481.157745,304.407532 431.593964,333.033813 381.185852,362.147736 
	C431.798492,391.367798 481.293518,419.942596 531.794495,449.098175 
	C531.794495,437.024170 531.794495,426.262146 531.794495,414.500092 
M346.993988,549.796326 
	C346.993988,516.880371 346.993988,483.964447 346.993988,450.361755 
	C341.835114,450.361755 337.226044,450.359802 332.616943,450.362213 
	C326.029755,450.365662 326.022430,450.367035 326.020996,456.724945 
	C326.016937,474.869263 326.026001,493.013611 326.008728,511.157928 
	C326.007050,512.909790 325.857849,514.661499 325.735260,517.322876 
	C316.520020,512.004333 308.110260,507.097961 299.649048,502.282104 
	C291.065338,497.396545 282.430725,492.600372 273.121002,487.373505 
	C273.121002,494.039429 273.426453,499.858826 273.020477,505.628204 
	C272.717621,509.931732 274.412598,512.296631 278.006805,514.285889 
	C287.609100,519.600403 297.069489,525.172546 306.560333,530.686890 
	C318.642151,537.706543 330.677155,544.807251 342.793823,551.765869 
	C344.242706,552.598022 346.803680,555.323914 346.993988,549.796326 
z"/>
<path fill="#010000" opacity="1.000000" stroke="none" 
	d="
M721.000000,323.531342 
	C720.350098,323.127319 719.202942,322.298035 719.122437,321.375671 
	C716.477905,291.071625 709.705322,261.581848 698.572937,233.430756 
	C690.713989,213.557220 681.223206,194.101898 670.339172,175.715881 
	C659.540955,157.474625 647.395996,139.831390 632.387451,124.501190 
	C626.749023,118.741974 621.339233,112.759026 615.490723,106.769897 
	C604.836487,97.338196 594.895081,87.544777 584.081299,78.834518 
	C574.838135,71.389366 564.424561,65.418076 554.829163,58.384861 
	C537.203308,45.465591 517.119873,37.513435 497.416016,28.590464 
	C476.767365,19.239639 455.106873,13.623627 433.156250,9.105072 
	C419.650360,6.324875 405.763306,4.884973 391.976135,4.108502 
	C373.735809,3.081236 355.344574,2.083145 337.168121,3.304126 
	C318.359009,4.567602 299.552399,7.655177 281.074097,11.519961 
	C264.784058,14.927070 248.412445,19.191746 233.046295,25.455847 
	C213.397339,33.465847 194.063644,42.749691 175.809998,53.541267 
	C157.519516,64.354622 140.206635,76.950546 124.449425,91.515114 
	C109.672546,105.173538 94.993294,118.888939 82.883858,135.029999 
	C74.455452,146.264496 66.617889,157.940414 58.299274,169.259583 
	C45.459454,186.730774 37.535923,206.653046 28.736578,226.239410 
	C19.455645,246.897751 13.560017,268.462463 9.203932,290.464996 
	C6.556561,303.836823 5.356745,317.523895 4.044708,331.121246 
	C3.185970,340.020844 3.328991,349.015137 2.916509,357.962097 
	C2.861284,359.159973 2.177990,360.328918 1.392771,361.255615 
	C1.000000,241.037399 1.000000,121.074783 1.000000,1.056090 
	C240.887802,1.056090 480.775635,1.056090 721.000000,1.056090 
	C721.000000,108.353996 721.000000,215.708344 721.000000,323.531342 
z"/>
<path fill="#010000" opacity="1.000000" stroke="none" 
	d="
M106.359222,615.011108 
	C111.598045,620.201660 116.231476,625.610962 121.575920,630.190430 
	C131.087448,638.340698 140.863663,646.207642 150.853775,653.763977 
	C156.765701,658.235718 163.505188,661.601440 169.515610,665.957092 
	C186.932358,678.578613 206.685318,686.470215 226.118011,695.218872 
	C248.746460,705.406311 272.524536,711.077393 296.612823,715.872986 
	C304.652588,717.473511 312.906311,717.990173 321.052551,719.075256 
	C322.116791,719.216980 323.122894,719.795471 324.077942,720.585815 
	C216.402512,721.000000 108.805023,721.000000 1.000000,721.000000 
	C1.000000,601.979187 1.000000,482.958252 1.000002,363.468658 
	C1.652739,363.837097 2.832799,364.651581 2.869800,365.515045 
	C3.062258,370.006500 2.582588,374.549072 3.034227,379.003113 
	C4.711893,395.548218 6.343138,412.109222 8.592402,428.582245 
	C11.355680,448.819733 16.870640,468.470673 24.307007,487.424744 
	C30.254274,502.583313 36.783386,517.657776 44.670078,531.873108 
	C53.609695,547.986206 63.598690,563.654541 74.534714,578.481201 
	C84.031158,591.356079 95.485222,602.787048 106.359222,615.011108 
z"/>
<path fill="#010000" opacity="1.000000" stroke="none" 
	d="
M400.468658,721.000000 
	C400.865265,720.349976 401.687439,719.201294 402.602081,719.122314 
	C432.243988,716.560181 461.135925,710.081299 488.675934,699.201294 
	C509.172241,691.103943 529.288269,681.462524 548.281372,670.308350 
	C566.582825,659.560364 583.650208,646.659973 599.657654,632.382568 
	C623.251343,611.338928 643.911072,587.954590 661.551575,561.747437 
	C675.173157,541.510742 685.834778,519.885376 695.440247,497.481903 
	C704.358887,476.680481 710.154297,455.138885 714.871399,433.224182 
	C717.046204,423.120514 717.687622,412.688293 719.086792,402.413544 
	C719.208923,401.516785 719.797607,400.683563 720.584839,399.910400 
	C721.000000,506.927063 721.000000,613.854126 721.000000,721.000000 
	C614.312561,721.000000 507.624939,721.000000 400.468658,721.000000 
z"/>
<path fill="#FFFDFD" opacity="1.000000" stroke="none" 
	d="
M489.319977,235.702911 
	C499.915924,241.581955 510.140228,247.430405 521.097595,253.698227 
	C478.627472,278.315094 436.473267,302.748840 394.127075,327.453094 
	C385.960419,332.024170 377.985718,336.324707 369.458496,340.923218 
	C369.458496,283.731262 369.458496,227.368866 369.458496,169.941833 
	C409.593384,192.019745 449.270844,213.846039 489.319977,235.702911 
z"/>
<path fill="#FEFCFB" opacity="1.000000" stroke="none" 
	d="
M250.293976,225.984711 
	C250.935944,233.361710 251.324600,240.777267 251.257248,248.188660 
	C251.247330,249.277725 249.216888,250.590576 247.876022,251.386795 
	C237.853668,257.338165 227.764313,263.176544 217.710922,269.075897 
	C216.314560,269.895294 215.000351,270.854645 212.891281,272.249908 
	C215.514771,273.796906 217.573334,275.034698 219.654221,276.233795 
	C229.034576,281.639191 238.384140,287.099884 247.829742,292.388977 
	C250.450058,293.856201 251.671158,295.595001 251.558441,298.717163 
	C251.331894,304.992218 251.491074,311.281189 251.491074,318.582947 
	C234.689453,309.101105 218.718964,300.088287 201.769318,290.522919 
	C201.769318,312.457153 201.769318,333.461365 201.769318,354.833252 
	C194.461548,354.833252 187.910294,354.833252 180.650513,354.833252 
	C180.650513,352.709229 180.650513,350.763519 180.650513,348.817780 
	C180.650467,323.152130 180.737778,297.485870 180.561508,271.821442 
	C180.533234,267.704468 181.561356,265.284943 185.364594,263.140503 
	C206.978897,250.953293 228.403976,238.430527 250.293976,225.984711 
z"/>
<path fill="#FEFAF9" opacity="1.000000" stroke="none" 
	d="
M347.193237,374.568115 
	C347.210876,391.157471 346.931549,407.292511 347.104828,423.422699 
	C347.152832,427.891754 345.856689,429.356140 341.473633,428.943298 
	C337.679077,428.585907 333.816864,428.720673 329.998474,428.913269 
	C326.925079,429.068298 325.924622,427.865021 325.973694,424.855286 
	C326.098541,417.202179 325.967590,409.544922 325.807220,401.434265 
	C325.784943,388.668396 326.011536,376.355988 325.848236,364.048767 
	C325.828918,362.594086 323.958588,360.679871 322.462921,359.803772 
	C307.385590,350.971985 292.240204,342.254395 277.027588,333.657410 
	C274.255676,332.090973 272.891113,330.380157 273.041473,327.019897 
	C273.322388,320.740570 273.122223,314.439758 273.122223,306.975922 
	C290.877167,317.223083 307.773499,326.974731 325.841919,337.402832 
	C325.841919,318.862885 325.841919,301.562103 325.841919,283.988678 
	C333.262299,283.988678 339.839203,283.988678 347.067139,283.988678 
	C347.067139,314.233154 347.067139,344.172546 347.193237,374.568115 
z"/>
<path fill="#FEFCFC" opacity="1.000000" stroke="none" 
	d="
M250.655090,473.890686 
	C250.992050,481.890137 250.992050,489.811462 250.992050,498.441437 
	C245.526947,495.432434 240.376129,492.596497 234.888916,489.720337 
	C227.190536,485.188446 219.885757,480.599396 212.452225,476.229370 
	C202.988235,470.665680 193.371201,465.360962 183.948303,459.730133 
	C182.500443,458.864929 180.810165,456.856964 180.799179,455.365936 
	C180.607590,429.406372 180.660965,403.445007 180.660965,376.990448 
	C187.561020,376.990448 194.233505,376.990448 201.500763,376.990448 
	C201.500763,378.834991 201.500763,380.615814 201.500778,382.396667 
	C201.500946,401.872772 201.587448,421.349579 201.423691,440.824310 
	C201.393295,444.438385 202.497757,446.475739 205.717850,448.274231 
	C220.673737,456.627441 235.466812,465.272156 250.655090,473.890686 
z"/>
<path fill="#FEFAF9" opacity="1.000000" stroke="none" 
	d="
M282.734619,206.760269 
	C304.058258,194.549561 325.069244,182.527634 346.662750,170.172409 
	C346.662750,201.124268 346.662750,231.293396 346.662750,261.801208 
	C339.920227,261.801208 333.356659,261.801208 326.192383,261.801208 
	C326.192383,243.691422 326.192383,225.646576 326.192383,206.432922 
	C308.208496,216.676895 291.165833,226.384720 273.191559,236.623215 
	C273.191559,228.567459 272.973083,221.332397 273.379395,214.132614 
	C273.458862,212.724411 275.860779,211.324493 277.372070,210.153793 
	C278.941223,208.938232 280.729462,208.005478 282.734619,206.760269 
z"/>
<path fill="#FEFDFD" opacity="1.000000" stroke="none" 
	d="
M446.462769,426.600891 
	C472.484650,441.705933 498.194855,456.621033 524.700623,471.997681 
	C472.609772,499.524811 421.349854,526.612854 369.477203,554.024658 
	C369.477203,496.575043 369.477203,440.051117 369.477203,382.416382 
	C395.451477,397.320099 420.801300,411.865540 446.462769,426.600891 
z"/>
<path fill="#FEFDFD" opacity="1.000000" stroke="none" 
	d="
M531.794495,415.000122 
	C531.794495,426.262146 531.794495,437.024170 531.794495,449.098175 
	C481.293518,419.942596 431.798492,391.367798 381.185852,362.147736 
	C431.593964,333.033813 481.157745,304.407532 531.794495,275.161560 
	C531.794495,322.400818 531.794495,368.450439 531.794495,415.000122 
z"/>
<path fill="#FDF9F9" opacity="1.000000" stroke="none" 
	d="
M346.991913,550.206543 
	C346.803680,555.323914 344.242706,552.598022 342.793823,551.765869 
	C330.677155,544.807251 318.642151,537.706543 306.560333,530.686890 
	C297.069489,525.172546 287.609100,519.600403 278.006805,514.285889 
	C274.412598,512.296631 272.717621,509.931732 273.020477,505.628204 
	C273.426453,499.858826 273.121002,494.039429 273.121002,487.373505 
	C282.430725,492.600372 291.065338,497.396545 299.649048,502.282104 
	C308.110260,507.097961 316.520020,512.004333 325.735260,517.322876 
	C325.857849,514.661499 326.007050,512.909790 326.008728,511.157928 
	C326.026001,493.013611 326.016937,474.869263 326.020996,456.724945 
	C326.022430,450.367035 326.029755,450.365662 332.616943,450.362213 
	C337.226044,450.359802 341.835114,450.361755 346.993988,450.361755 
	C346.993988,483.964447 346.993988,516.880371 346.991913,550.206543 
z"/>
</svg>