<svg id="Layer_1" data-name="Layer 1" xmlns="http://www.w3.org/2000/svg" viewBox="0 0 192 145"><defs><style>.cls-1{fill:#e00;}</style></defs><title>RedHat-Logo-Hat-Color</title><desc>RedHat-Logo-Hat-Color</desc>
<metadata><?xpacket begin="﻿" id="W5M0MpCehiHzreSzNTczkc9d"?>
<x:xmpmeta xmlns:x="adobe:ns:meta/" x:xmptk="Adobe XMP Core 8.0-c001 1.000000, 0000/00/00-00:00:00        ">
   <rdf:RDF xmlns:rdf="http://www.w3.org/1999/02/22-rdf-syntax-ns#">
      <rdf:Description rdf:about=""
            xmlns:xmp="http://ns.adobe.com/xap/1.0/"
            xmlns:tiff="http://ns.adobe.com/tiff/1.0/"
            xmlns:dc="http://purl.org/dc/elements/1.1/"
            xmlns:ns1="http://prismstandard.org/namespaces/basic/2.1/">
         <xmp:rhcc-effective-on>2023-03-20T11:49:00.000-04:00</xmp:rhcc-effective-on>
         <xmp:rhcc-rights-restricted>yes</xmp:rhcc-rights-restricted>
         <xmp:rhcc-metadata-complete-moderator>completed</xmp:rhcc-metadata-complete-moderator>
         <xmp:rhcc-translation-id>TRA7d959a41-89c2-4520-ae68-c42194485152</xmp:rhcc-translation-id>
         <xmp:CreateDate>2023-01-06T23:07:46.710Z</xmp:CreateDate>
         <xmp:rhcc-derivative-id>DER7d959a41-89c2-4520-ae68-c42194485152</xmp:rhcc-derivative-id>
         <xmp:rhcc-distribution-terms>confidential - nda required</xmp:rhcc-distribution-terms>
         <xmp:rhcc-metadata-complete-uploader>completed</xmp:rhcc-metadata-complete-uploader>
         <xmp:rhcc-author>Hattie Ferguson</xmp:rhcc-author>
         <xmp:rhcc-notify-portal-subscribers-on-change>yes</xmp:rhcc-notify-portal-subscribers-on-change>
         <xmp:rhcc-content-category>pnt asset</xmp:rhcc-content-category>
         <xmp:rhcc-content-type>
            <rdf:Bag>
               <rdf:li>rhcc-content-type:image</rdf:li>
            </rdf:Bag>
         </xmp:rhcc-content-type>
         <xmp:rhcc-topics>
            <rdf:Bag>
               <rdf:li>rhcc-topics:partners</rdf:li>
            </rdf:Bag>
         </xmp:rhcc-topics>
         <xmp:rhcc-audience>
            <rdf:Bag>
               <rdf:li>rhcc-audience:all-partners</rdf:li>
               <rdf:li>rhcc-audience:internal</rdf:li>
            </rdf:Bag>
         </xmp:rhcc-audience>
         <tiff:ImageLength>145</tiff:ImageLength>
         <tiff:ImageWidth>192</tiff:ImageWidth>
         <dc:format>image/svg+xml</dc:format>
         <dc:modified>2023-01-06T23:11:46.475Z</dc:modified>
         <dc:description>
            <rdf:Alt>
               <rdf:li xml:lang="x-default">RedHat-Logo-Hat-Color</rdf:li>
            </rdf:Alt>
         </dc:description>
         <dc:title>
            <rdf:Alt>
               <rdf:li xml:lang="x-default">RedHat-Logo-Hat-Color</rdf:li>
            </rdf:Alt>
         </dc:title>
         <ns1:expirationDate>2028-07-05T20:00:00.000-04:00</ns1:expirationDate>
      </rdf:Description>
   </rdf:RDF>
</x:xmpmeta>
                                                                                                    
                                                                                                    
                                                                                                    
                                                                                                    
                                                                                                    
                                                                                                    
                                                                                                    
                                                                                                    
                                                                                                    
                                                                                                    
                                                                                                    
                                                                                                    
                                                                                                    
                                                                                                    
               
<?xpacket end="w"?></metadata>
<path d="M157.77,62.61a14,14,0,0,1,.31,3.42c0,14.88-18.1,17.46-30.61,17.46C78.83,83.49,42.53,53.26,42.53,44a6.43,6.43,0,0,1,.22-1.94l-3.66,9.06a18.45,18.45,0,0,0-1.51,7.33c0,18.11,41,45.48,87.74,45.48,20.69,0,36.43-7.76,36.43-21.77,0-1.08,0-1.94-1.73-10.13Z"/><path class="cls-1" d="M127.47,83.49c12.51,0,30.61-2.58,30.61-17.46a14,14,0,0,0-.31-3.42l-7.45-32.36c-1.72-7.12-3.23-10.35-15.73-16.6C124.89,8.69,103.76.5,97.51.5,91.69.5,90,8,83.06,8c-6.68,0-11.64-5.6-17.89-5.6-6,0-9.91,4.09-12.93,12.5,0,0-8.41,23.72-9.49,27.16A6.43,6.43,0,0,0,42.53,44c0,9.22,36.3,39.45,84.94,39.45M160,72.07c1.73,8.19,1.73,9.05,1.73,10.13,0,14-15.74,21.77-36.43,21.77C78.54,104,37.58,76.6,37.58,58.49a18.45,18.45,0,0,1,1.51-7.33C22.27,52,.5,55,.5,74.22c0,31.48,74.59,70.28,133.65,70.28,45.28,0,56.7-20.48,56.7-36.65,0-12.72-11-27.16-30.83-35.78"/></svg>